<?xml version="1.0" encoding="utf-8"?>
<!-- Generator: Adobe Illustrator 19.0.0, SVG Export Plug-In . SVG Version: 6.00 Build 0)  -->
<svg version="1.1" xmlns="http://www.w3.org/2000/svg" xmlns:xlink="http://www.w3.org/1999/xlink" x="0px" y="0px"
	 viewBox="0 0 141.3 179.7" enable-background="new 0 0 141.3 179.7" xml:space="preserve">
<g id="Layer_2">
</g>
<g id="Layer_1">
	<rect display="none" fill="#FFFFFF" width="141.3" height="179.7"/>
	<g>
		<path fill="#FFFFFF" d="M41.4,18.5c0.4,0.1,1,0.2,1.5,0.3c3.3,0.7,6.6,1.4,9.9,2.1c2.8,0.6,5.5,1.1,8.3,1.7
			c2.2,0.4,4.3,0.9,6.5,1.3c0.2,0,0.4,0,0.6,0c3.8-0.7,7.5-1.5,11.3-2.2c2.9-0.6,5.8-1.1,8.7-1.7c2.3-0.5,4.6-0.9,6.9-1.4
			c0.5-0.1,1.1-0.1,1.6,0.1c0.7,0.3,1.2,0.9,1.3,1.7c0.2,0.8,0.3,1.6,0.4,2.3c0.5,2.7,1,5.5,1.5,8.2c0.5,2.7,1,5.4,1.5,8.1
			c0.5,2.7,1,5.4,1.5,8c0.4,2,0.7,4.1,1.1,6.1c0.1,0.8,0,1.5-0.4,2.2c-1.7,3.2-3.4,6.5-5.2,9.7c-3.1,5.9-6.3,11.8-9.4,17.7
			c-3.9,7.4-7.8,14.7-11.7,22.1c-2.2,4.1-4.3,8.2-6.5,12.3c-0.1,0.2-0.2,0.4-0.3,0.6c-0.9,1.3-2.7,1.3-3.6,0.1
			c-0.1-0.2-0.2-0.3-0.3-0.5c-2.9-5.3-5.8-10.7-8.7-16c-4.4-8.1-8.8-16.2-13.2-24.3c-3.8-7-7.6-14-11.4-21c-0.4-0.7-0.5-1.4-0.4-2.2
			c0.4-2.2,0.8-4.3,1.2-6.5c0.4-2.3,0.8-4.7,1.3-7c0.5-2.8,1-5.5,1.5-8.3c0.4-2.3,0.8-4.7,1.3-7c0.3-1.4,0.5-2.9,0.8-4.3
			c0.1-0.3,0.1-0.5,0.2-0.8C39.6,18.9,40.3,18.5,41.4,18.5z M43.7,21.2c-0.2-0.1-0.5-0.1-0.7-0.2c-0.5-0.1-0.9-0.2-1.4-0.3
			c-0.1,0-0.3-0.1-0.4-0.1c0,0.2-0.1,0.4-0.1,0.5c-0.3,1.5-0.5,3-0.8,4.5c-0.4,2.2-0.8,4.3-1.2,6.5c-0.3,1.7-0.6,3.4-0.9,5.2
			c-0.2,1.2-0.4,2.4-0.6,3.5c0,0-0.1,0.1-0.1,0.1c-0.1,0.6-0.2,1.2-0.3,1.7c-0.4,2.3-0.8,4.6-1.3,6.9c0,0.1,0,0.3,0,0.4
			c-0.1,0.7-0.3,1.4-0.4,2.1c-0.1,0.6-0.2,1.3-0.4,1.9c0,0.2-0.1,0.5,0.1,0.7c0.2,0.4,0.4,0.8,0.6,1.2c0.7,1.2,1.3,2.5,2,3.7
			c3.9,7.1,7.7,14.2,11.6,21.3c0.1,0.3,0.3,0.5,0.5,0.8c0.1,0.2,0.2,0.4,0.4,0.6c0.1,0.2,0.2,0.4,0.3,0.6
			c4.6,8.4,9.1,16.8,13.7,25.2c1.4,2.6,2.8,5.2,4.2,7.8c0.1,0.2,0.1,0.4,0.4,0.5c0.1-0.2,0.2-0.3,0.3-0.5c0.5-1,1.1-2,1.6-3.1
			c3.1-5.9,6.2-11.7,9.3-17.6c0.9-1.7,1.8-3.5,2.7-5.2c0.3-0.5,0.6-1.1,0.9-1.7c0-0.1,0.1-0.2,0.1-0.4c0.2-0.3,0.4-0.6,0.5-0.9
			c1.6-2.9,3.1-5.9,4.6-8.8c0.1-0.1,0.1-0.1,0.2-0.2c0.3-0.5,0.5-1,0.7-1.4c0-0.1,0-0.2,0.1-0.3c0.2-0.1,0.2-0.3,0.3-0.5
			c1.3-2.4,2.5-4.7,3.8-7.1c1.9-3.6,3.8-7.2,5.7-10.8c0.7-1.3,1.4-2.6,2-3.8c0.2-0.4,0.3-0.8,0.1-1.2c0-0.1-0.1-0.2-0.1-0.3
			c-0.4-2.1-0.8-4.1-1.1-6.2c-0.4-2.3-0.8-4.6-1.3-6.8c-0.4-2.1-0.8-4.2-1.2-6.3c-0.4-2.1-0.8-4.2-1.2-6.2c-0.4-2.1-0.8-4.3-1.2-6.4
			c0,0-0.1-0.1-0.1-0.1c-0.3,0.1-0.6,0.1-0.9,0.2c-0.1,0-0.3,0-0.4,0.1c-0.5,0.1-1,0.2-1.5,0.3c-2.9,0.6-5.7,1.1-8.6,1.7
			c-2.5,0.5-5.1,1-7.6,1.5c-2.6,0.5-5.3,1-7.9,1.6c-0.4,0.1-0.8,0.1-1.1,0.2c-0.5-0.1-0.9-0.2-1.4-0.3c-3.1-0.6-6.2-1.3-9.2-1.9
			c-3.1-0.6-6.2-1.3-9.3-1.9C46.5,21.7,45.1,21.4,43.7,21.2z"/>
		<path fill="#FFFFFF" d="M113.9,127.6c1.5,0,2.9,0,4.4,0c3.1,4.1,6.1,8.2,9.2,12.3c0.2-0.1,0.1-0.2,0.1-0.2c0-0.1,0-0.2,0-0.3
			c0-3.7,0-7.4,0-11.1c0-0.2,0-0.4,0-0.6c0.1,0,0.1-0.1,0.1-0.1c0,0,0,0,0,0c1.3,0,2.6,0,3.9,0c0.1,0,0.1,0,0.1,0c0,0,0,0,0.1,0.1
			c0,0,0,0,0,0.1c0,0.2,0,0.3,0,0.5c0,6.4,0,12.7,0,19.1c-0.1,0-0.2,0.1-0.2,0.1c-1.3,0-2.5,0-3.9,0c-0.8-1-1.6-2.1-2.4-3.2
			c-0.8-1.1-1.6-2.1-2.4-3.2c-0.8-1.1-1.6-2.1-2.4-3.2c-0.8-1.1-1.6-2.1-2.4-3.2c-0.1,0.3-0.1,0.5-0.1,0.6c0,3.8,0,7.7,0,11.5
			c0,0.2,0,0.4,0,0.6c-0.4,0.1-3.4,0.1-4.2,0c0-0.1,0-0.2,0-0.4c0-0.1,0-0.2,0-0.3c0-6.2,0-12.3,0-18.5
			C113.9,128.1,113.9,127.9,113.9,127.6z"/>
		<path fill="#FFFFFF" d="M25.9,139.9c0.5,0.9,1,1.7,1.5,2.5c0.5,0.8,1,1.6,1.5,2.5c0.5,0.8,1,1.6,1.5,2.5c-1.7,0-3.2,0-4.9,0
			c-0.5-0.7-0.9-1.5-1.3-2.3c-0.4-0.8-0.9-1.6-1.3-2.4c-0.4-0.8-0.9-1.5-1.3-2.3c-0.4-0.1-2.5-0.1-3.1,0c-0.1,0.2,0,0.4,0,0.6
			c0,1.9,0,3.8,0,5.7c0,0.2,0,0.4,0,0.6c-0.1,0-0.2,0.1-0.3,0.1c-1.2,0-2.4,0-3.6,0c-0.1,0-0.2,0-0.3,0c-0.1-0.5-0.1-19.2,0-19.7
			c0.1,0,0.2,0,0.4,0c3,0,5.9,0,8.9,0c1.1,0,2.2,0.2,3.2,0.6c1.9,0.9,3.1,2.4,3.5,4.5c0.2,1,0.2,2.1-0.1,3.1
			c-0.5,1.9-1.7,3.2-3.6,3.9C26.3,139.7,26.1,139.8,25.9,139.9z M18.4,136.6c0.1,0,0.2,0,0.3,0c1.4,0,2.9,0,4.3,0
			c0.4,0,0.7-0.1,1.1-0.2c1.1-0.4,1.8-1.3,1.8-2.5c0-1.5-0.9-2.2-1.9-2.5c-0.3-0.1-0.7-0.1-1.1-0.2c-1.4,0-2.7,0-4.1,0
			c-0.1,0-0.2,0-0.4,0.1C18.4,133.1,18.4,134.9,18.4,136.6z"/>
		<path fill="#FFFFFF" d="M42.8,127.3c1.8,0,3.5,0.3,5.1,1.2c2.9,1.5,4.6,3.8,5.2,7c0.4,1.8,0.3,3.7-0.3,5.5c-0.9,2.8-2.8,4.9-5.5,6
			c-3.2,1.3-6.5,1.2-9.6-0.4c-2.8-1.4-4.4-3.7-5.1-6.7c-0.4-1.9-0.3-3.7,0.3-5.5c1-3.3,3.2-5.4,6.5-6.4
			C40.6,127.4,41.7,127.3,42.8,127.3z M49,137.6c0-1.1-0.2-2-0.5-2.8c-0.7-1.9-2.1-3.1-4.1-3.6c-0.8-0.2-1.7-0.2-2.6-0.1
			c-2.2,0.4-3.7,1.6-4.5,3.7c-0.7,1.8-0.7,3.7,0,5.5c0.5,1.3,1.4,2.4,2.7,3c0.8,0.4,1.7,0.6,2.6,0.7c3,0.1,5.2-1.6,6-4.2
			C48.9,139.1,49,138.3,49,137.6z"/>
		<path fill="#FFFFFF" d="M78.7,147.3c-0.4,0.1-3.4,0.1-4.2,0c0-0.1,0-0.2,0-0.4c0-0.3,0-0.6,0-0.9c0-5.9,0-11.9,0-17.8
			c0-0.2,0-0.4,0-0.7c0.7-0.1,1.4,0,2.1,0c0.7,0,1.4,0,2,0c0.2,0.2,0.1,0.4,0.1,0.6c0,2.2,0,4.3,0,6.5c0,0.2,0,0.4,0,0.6
			c0.5,0.1,8.9,0.1,9.4,0c0.1-0.5,0-1,0-1.5c0-0.5,0-1,0-1.5c0-0.5,0-1,0-1.5c0-0.5,0-1,0-1.5c0-0.5,0-1,0-1.6c0.7-0.1,1.4,0,2.1,0
			c0.7,0,1.4,0,2,0c0.1,0,0.1,0.1,0.1,0.1c0,0,0,0,0,0.1c0,6.5,0,12.9,0,19.4c0,0.1,0,0.1,0,0.2c-0.4,0.1-0.9,0-1.4,0
			c-0.5,0-1,0-1.4,0c-0.5,0-0.9,0-1.4,0c-0.1-0.2-0.1-0.4-0.1-0.6c0-2.3,0-4.7,0-7c0-0.2,0-0.4,0-0.6c-0.1,0-0.2-0.1-0.3-0.1
			c-2.9,0-5.9,0-8.8,0c-0.1,0-0.1,0-0.2,0c-0.1,0.1-0.1,0.3-0.1,0.4c0,0.7,0,1.5,0,2.2c0,1.7,0,3.4,0,5
			C78.7,146.9,78.7,147.1,78.7,147.3z"/>
		<path fill="#FFFFFF" d="M96.5,127.6c0.8-0.1,13.6,0,14,0c0.1,0.4,0.1,2.8,0,3.6c-0.2,0.1-0.4,0.1-0.6,0.1c-1.9,0-3.7,0-5.6,0
			c-1,0-2.1,0-3.1,0c-0.2,0-0.4,0-0.5,0c-0.1,0.5-0.1,3.5,0,4.1c0.2,0.1,0.4,0.1,0.6,0.1c2.8,0,5.6,0,8.4,0c0.2,0,0.4,0,0.6,0
			c0.1,0.6,0,1.2,0,1.8c0,0.6,0,1.2,0,1.7c-0.2,0.2-0.4,0.1-0.6,0.1c-2.8,0-5.6,0-8.4,0c-0.2,0-0.4,0-0.6,0c-0.1,0.5-0.1,4,0,4.5
			c0.2,0.1,0.4,0,0.6,0c2.8,0,5.7,0,8.5,0c0.2,0,0.4,0,0.6,0c0.1,0.4,0.1,2.8,0,3.6c-0.2,0.1-0.4,0.1-0.6,0.1c-3.6,0-7.2,0-10.8,0
			c-0.7,0-1.4,0-2,0c-0.2,0-0.4,0-0.6,0c0-0.1-0.1-0.2-0.1-0.3c0-0.1,0-0.2,0-0.3c0-6.2,0-12.3,0-18.5
			C96.4,128,96.4,127.8,96.5,127.6z"/>
		<path fill="#FFFFFF" d="M55.1,144.6c0.8-1.1,1.5-2.2,2.3-3.2c0.2,0.2,0.4,0.3,0.5,0.4c1.3,1.2,2.9,1.9,4.6,2.1
			c0.9,0.1,1.8,0.1,2.7-0.1c0.5-0.1,1-0.3,1.4-0.7c0.4-0.3,0.6-0.8,0.6-1.3c0-0.4-0.1-0.7-0.4-1c-0.3-0.3-0.6-0.5-0.9-0.6
			c-0.7-0.3-1.4-0.5-2.1-0.6c-1.1-0.3-2.3-0.6-3.4-0.9c-0.8-0.2-1.6-0.6-2.4-1c-1.6-1-2.3-2.4-2.4-4.2c0-2,0.8-3.5,2.4-4.7
			c0.9-0.7,2-1.1,3.1-1.3c2.4-0.4,4.8-0.2,7,0.8c0.9,0.4,1.7,0.9,2.5,1.5c0.1,0.1,0.2,0.2,0.3,0.2c-0.8,1.1-1.6,2.1-2.4,3.1
			c-0.1-0.1-0.2-0.2-0.3-0.2c-1.3-1-2.8-1.6-4.4-1.8c-0.7-0.1-1.3-0.1-2,0c-0.4,0.1-0.7,0.2-1,0.4c-0.5,0.3-0.8,0.8-0.9,1.4
			c0,0.4,0.1,0.7,0.4,1c0.2,0.2,0.5,0.4,0.8,0.5c0.7,0.3,1.4,0.5,2.1,0.7c1.1,0.3,2.2,0.6,3.4,0.9c0.5,0.2,1,0.4,1.5,0.6
			c0.4,0.2,0.9,0.5,1.3,0.8c1.3,0.9,1.9,2.2,2,3.8c0,0.9-0.1,1.8-0.4,2.7c-0.6,1.4-1.6,2.4-3,3.1c-1.1,0.5-2.2,0.8-3.4,0.9
			c-1.9,0.1-3.8,0-5.6-0.6c-1.3-0.4-2.5-1.1-3.5-1.9c-0.1-0.1-0.3-0.2-0.4-0.4C55.2,144.7,55.1,144.7,55.1,144.6z"/>
		<path fill="#FFFFFF" d="M112.5,157.6c0.1,0,0.1,0.1,0.1,0.1c1.1,0.5,1.6,1.6,1.3,2.8c-0.2,0.9-0.9,1.5-1.8,1.7
			c-0.2,0-0.5,0.1-0.7,0.1c-1.3,0-2.5,0-3.8,0c-0.1,0-0.3,0-0.4,0c0-0.1,0-0.2,0-0.3c-0.1-1.4,0-8,0-8.5c0.1,0,0.2,0,0.3,0
			c1.3,0,2.6,0,3.9,0c0.4,0,0.8,0.1,1.1,0.2c0.7,0.3,1.1,0.9,1.2,1.6c0,0.3,0,0.6,0,0.8c-0.1,0.6-0.4,1.1-0.9,1.4
			C112.8,157.5,112.6,157.5,112.5,157.6z M108.7,158.3c-0.1,0.6-0.1,2,0,2.4c0.1,0,0.2,0,0.4,0c0.6,0,1.3,0,1.9,0c0.1,0,0.3,0,0.4,0
			c0.3,0,0.6-0.2,0.8-0.5c0.3-0.4,0.3-0.9,0.1-1.3c-0.2-0.4-0.6-0.6-1-0.6C110.5,158.3,109.6,158.3,108.7,158.3z M108.7,154.7
			c0,0.7,0,1.4,0,2c0,0.1,0,0.1,0,0.2c0.1,0,0.1,0.1,0.2,0.1c0.8,0,1.5,0,2.3,0c0.1,0,0.3,0,0.4-0.1c0.3-0.1,0.5-0.3,0.6-0.6
			c0.3-0.7-0.2-1.6-1.1-1.6c-0.6,0-1.2,0-1.8,0C109.1,154.7,109,154.7,108.7,154.7z"/>
		<path fill="#FFFFFF" d="M54.1,159.3c0.1-2,0.1-3.9,0.1-5.9c0.3-0.1,0.5-0.1,0.7-0.1c0.2,0,0.4,0,0.6,0c0,0,0.1,0.1,0.1,0.1
			c0,0,0,0,0,0c0,2.8,0,5.6,0,8.3c0,0.1,0,0.2,0,0.3c-0.5,0.1-0.9,0-1.4,0.1c-0.7-1-1.5-2.1-2.2-3.1c-0.7-1-1.4-2-2.2-3.1
			c-0.1,0.4,0,0.7,0,1c0,0.3,0,0.6,0,0.8c0,0.3,0,0.6,0,0.9s0,0.6,0,0.9s0,0.6,0,0.9c0,0.3,0,0.6,0,0.8c0,0.3,0,0.6,0,0.9
			c-0.5,0.1-1,0-1.4,0.1c-0.1-0.1-0.1-0.1-0.1-0.1c0,0,0,0,0-0.1c0-2.8,0-5.5,0-8.3c0-0.1,0-0.1,0-0.2c0,0,0-0.1,0.1-0.1
			c0.4-0.1,0.9,0,1.4,0c0.1,0.2,0.2,0.3,0.4,0.5c1.2,1.7,2.4,3.4,3.7,5.1C53.9,159.1,54,159.2,54.1,159.3z"/>
		<path fill="#FFFFFF" d="M29.2,162.1c-0.1-0.6-0.1-8.3,0-8.8c0.1,0,0.2,0,0.4,0c1,0,1.9,0,2.9,0c0.7,0,1.5,0.1,2.1,0.5
			c1.3,0.7,2,1.7,2.2,3.1c0.1,0.7,0.1,1.4-0.1,2.1c-0.4,1.7-1.8,2.9-3.5,3.1c-0.4,0-0.8,0.1-1.2,0.1c-0.7,0-1.5,0-2.2,0
			C29.6,162.2,29.4,162.2,29.2,162.1z M30.7,154.7c0,0.1,0,0.2,0,0.3c0,1.9,0,3.8,0,5.7c0,0,0,0,0,0c0,0,0,0,0.1,0.1
			c0.7,0,1.5,0.1,2.2,0c0.9-0.2,1.6-0.7,2-1.5c0.4-0.9,0.5-1.9,0.1-2.9c-0.4-1-1.2-1.5-2.2-1.6C32.2,154.6,31.5,154.7,30.7,154.7z"
			/>
		<path fill="#FFFFFF" d="M104.9,162.2c-0.6,0-1.1,0-1.6,0c-0.2-0.6-0.4-1.1-0.6-1.6c-0.4-0.1-3.3-0.1-4,0c-0.2,0.5-0.4,1.1-0.6,1.6
			c-0.6,0.1-1.1,0-1.6,0c0-0.1,0-0.1,0-0.1c0,0,0,0,0-0.1c0-0.1,0.1-0.2,0.1-0.4c1-2.8,2.1-5.5,3.1-8.3c0.3-0.1,0.6-0.1,0.9-0.1
			c0.3,0,0.6,0,0.9,0c0.1,0.1,0.1,0.2,0.2,0.3c1,2.8,2.1,5.5,3.1,8.3C104.9,161.9,104.9,162,104.9,162.2z M102.2,159.1
			c-0.5-1.4-1-2.8-1.5-4.1c-0.3,0.5-1.4,3.7-1.5,4.1C100.2,159.1,101.1,159.1,102.2,159.1z"/>
		<path fill="#FFFFFF" d="M69.9,153.3c0.6,0,1.2,0,1.8,0c0.2,0.4,3.1,7.9,3.4,8.7c-0.1,0-0.2,0.1-0.2,0.1c-0.4,0-0.8,0-1.2,0
			c-0.1,0-0.1,0-0.2,0c-0.2-0.5-0.4-1.1-0.6-1.6c-0.5-0.1-3.1-0.1-3.9,0c-0.3,0.5-0.4,1.1-0.7,1.6c-0.5,0.1-1.2,0.1-1.6,0
			c0.3-1,0.7-1.9,1.1-2.9c0.4-1,0.7-2,1.1-2.9C69.2,155.3,69.5,154.3,69.9,153.3z M72.3,159.1c0-0.1,0-0.2-0.1-0.3
			c-0.4-1.2-0.9-2.4-1.3-3.6c0-0.1-0.1-0.1-0.1-0.2c-0.6,1.3-1.4,3.6-1.4,4.1C70.3,159.1,71.3,159.1,72.3,159.1z"/>
		<path fill="#FFFFFF" d="M45.4,153.4c0.1,0.4,0,0.9,0,1.3c-0.5,0-1,0-1.5,0c-0.5,0-0.9,0-1.4,0c-0.5,0-1,0-1.4,0
			c-0.1,0.5-0.1,1.7,0,2.2c0.4,0.1,0.9,0,1.4,0c0.5,0,1,0,1.4,0c0.5,0,0.9,0,1.4,0c0.1,0.4,0,0.8,0,1.3c-0.7,0.1-1.4,0-2.1,0
			c-0.7,0-1.4,0-2.1,0c-0.1,0.5-0.1,1.8,0,2.4c0.2,0,0.3,0,0.5,0c1.1,0,2.1,0,3.2,0c0.2,0,0.4,0,0.6,0c0.1,0.4,0.1,0.9,0,1.3
			c-0.1,0-0.2,0.1-0.3,0.1c-1.7,0-3.4,0-5.1,0c-0.1,0-0.2,0-0.3,0c0-0.1,0-0.3,0-0.4c-0.1-3.3,0-7.8,0.1-8.4c0.6-0.1,1.3,0,1.9,0
			c0.6,0,1.3,0,1.9,0C44.1,153.3,44.8,153.3,45.4,153.4z"/>
		<path fill="#FFFFFF" d="M62.2,162.1c-0.5,0.1-0.9,0.1-1.4,0c-0.1-0.2-0.1-0.4-0.1-0.6c0-2.1,0-4.1,0-6.2c0-0.2,0-0.4,0-0.6
			c-0.9-0.1-1.7,0-2.5,0c0-0.4,0-0.8,0-1.3c0.1,0,0.2-0.1,0.3-0.1c2,0,4,0,6,0c0.1,0,0.2,0,0.3,0c0,0.4,0,0.8,0,1.3
			c-0.1,0-0.2,0.1-0.4,0.1c-0.5,0-1.1,0-1.6,0c-0.2,0-0.4,0-0.5,0c-0.2,0.2-0.1,0.4-0.1,0.6c0,2.1,0,4.1,0,6.2
			C62.3,161.7,62.2,161.9,62.2,162.1z"/>
		<path fill="#FFFFFF" d="M91,160.8c1.3,0,2.5,0,3.7,0c0.1,0.5,0.1,0.9,0,1.3c-0.1,0-0.2,0-0.3,0.1c-1.5,0.1-4.4,0-4.8-0.1
			c0,0,0,0,0,0c0,0,0,0,0-0.1c0-0.1,0-0.2,0-0.3c0-2.7,0-5.4,0-8.2c0,0,0-0.1,0.1-0.1c0.4-0.1,0.9-0.1,1.4,0c0.1,0.5,0,1,0,1.5
			c0,0.5,0,1,0,1.4c0,0.5,0,1,0,1.5c0,0.5,0,1,0,1.4C91,159.7,91,160.2,91,160.8z"/>
		<path fill="#FFFFFF" d="M77.3,153.4c0.5,0,0.9,0,1.4,0c0.1,0.6,0,1.2,0,1.8c0,0.6,0,1.3,0,1.9c0,0.6,0,1.2,0,1.8
			c0,0.6,0,1.2,0,1.9c0.2,0,0.3,0.1,0.4,0.1c0.9,0,1.8,0,2.7,0c0.2,0,0.4,0,0.6,0c0.1,0.4,0.1,0.9,0,1.3c-0.1,0-0.2,0.1-0.2,0.1
			c-1.6,0-3.3,0-4.9,0c0-0.2-0.1-0.3-0.1-0.4c0-2.7,0-5.3,0-8C77.3,153.6,77.3,153.5,77.3,153.4z"/>
		<path fill="#FFFFFF" d="M50.5,81.2c0.3-0.5,0.6-0.9,1-1.4c1.9-2.5,3.7-5,5.6-7.5c0.1-0.2,0.3-0.4,0.4-0.6c0.2,0.1,0.3,0.2,0.5,0.2
			c-0.1,0.1-0.2,0.2-0.2,0.3c-1.3,1.8-2.7,3.6-4,5.5c-0.6,0.8-1.2,1.6-1.8,2.4c-0.1,0.1-0.2,0.2-0.1,0.4c0.3-0.1,0.5-0.3,0.8-0.4
			c2.3-1.3,4.6-2.6,7-3.8c0.7-0.4,1.4-0.8,2.1-1.2c0.1-0.1,0.3-0.1,0.3-0.3c-0.1-0.1-0.2-0.2-0.3-0.2c-0.6-0.4-1.1-0.8-1.7-1.2
			c-0.6-0.5-1.3-0.9-1.9-1.4c0-0.1,0.1-0.2,0.1-0.3c0.1-0.2,0.1-0.2-0.1-0.4c-0.1,0-0.2-0.1-0.2-0.1c-0.1,0.1-0.3,0.2-0.4,0.3
			c-0.5-0.3-0.9-0.6-1.4-1c-3-2.2-5.9-4.3-8.9-6.5c-3.4-2.5-6.9-5-10.3-7.5c-0.3-0.2-0.6-0.4-0.9-0.6c-0.1-0.1-0.2-0.1-0.2,0
			c-0.2-0.4-0.4-0.8-0.6-1.2c0.3,0.2,0.7,0.4,1,0.7c4.3,3.1,8.6,6.3,12.9,9.4c2.7,2,5.4,4,8.1,5.9c0.2,0.1,0.4,0.2,0.5,0.3
			c0.3-0.1,0.3-0.2,0.4-0.4c1.1-1.5,2.2-3,3.3-4.5c2.9-3.9,5.8-7.9,8.7-11.8c1-1.4,2.1-2.8,3.1-4.2c0.1-0.1,0.1-0.2,0.2-0.2
			c0.3-0.3,0.3-0.6,0.2-1c0-0.1,0-0.2-0.1-0.3c0.2,0,0.3,0.1,0.5,0c0.1-0.2,0-0.4-0.1-0.5c0,0,0,0,0,0c0.2,0,0.4,0.1,0.7,0.1
			c-0.1,0.1-0.2,0.3-0.3,0.4c0.1,0.2,0.3,0.2,0.5,0.2c-0.2,0.3-0.4,0.5-0.6,0.8c0-0.2,0-0.4-0.2-0.6c-0.4,0.3-0.5,0.7-0.2,1.1
			c0.1-0.1,0.3-0.3,0.4-0.4c0.2,0.6,0.3,1.3,0.5,1.9c0.7,2.9,1.4,5.8,2.1,8.8c0.4,1.7,0.8,3.4,1.2,5.1c0,0.2,0,0.3,0.2,0.5
			c0.1,0,0.2,0,0.2-0.1c7.2-4,14.4-7.9,21.6-11.9c0,0,0.1-0.1,0.1-0.2c-0.1,0-0.2-0.1-0.4-0.1c-1.7-0.3-3.4-0.7-5.1-1
			c-2.9-0.6-5.9-1.1-8.8-1.7c-2.7-0.5-5.5-1.1-8.2-1.6C77,49.2,76,49,75.1,48.8c0.1-0.2,0.2-0.4,0.3-0.5c0.4,0.1,0.7,0.2,1.1,0.3
			c3.6,0.7,7.1,1.4,10.7,2.1c4.2,0.8,8.3,1.6,12.5,2.5c0.1,0,0.2,0,0.2,0c-0.1-0.2-0.3-0.2-0.4-0.3c-1.6-0.9-3.2-1.7-4.7-2.6
			c-2.3-1.3-4.6-2.5-6.9-3.8c-1.6-0.9-3.2-1.8-4.8-2.6c-0.9-0.5-1.7-0.9-2.6-1.4c-0.2-0.1-0.3-0.2-0.6-0.2c0,0-0.1,0.1-0.1,0.1
			c-1.5,2-3,4.1-4.5,6.1c-0.2,0-0.4-0.1-0.6-0.1c0.3-0.4,0.6-0.8,0.9-1.2c1.3-1.7,2.5-3.5,3.8-5.2c0.4,0.2,0.6,0.3,0.8-0.2
			c0,0,0,0,0.1,0c0.2,0.1,0.3,0.2,0.5,0.3c2.7,1.5,5.4,3,8.1,4.5c2.4,1.3,4.9,2.7,7.3,4c1.7,0.9,3.4,1.9,5.1,2.8
			c0.1,0,0.1,0.1,0.2,0.1c-0.3,0.2-0.5,0.1-0.8,0c0,0,0,0-0.1,0c0,0.1,0.1,0.1,0.1,0.2c-0.1,0.1-0.1,0.2-0.2,0.2
			c0.2,0.2,0.5,0.1,0.7,0.1c0.2,0,0.4,0.1,0.4,0.3c-0.7,1.3-1.4,2.6-2,3.8c-1.9,3.6-3.8,7.2-5.7,10.8c-1.3,2.4-2.5,4.7-3.8,7.1
			c-0.1,0.2-0.1,0.4-0.3,0.5c0.1-0.2,0.1-0.3,0.2-0.5c1.1-2.1,2.2-4.3,3.4-6.4c0.7-1.3,1.3-2.5,2-3.8c1.7-3.2,3.3-6.3,5-9.5
			c0.3-0.6,0.6-1.1,0.9-1.7c0.1-0.2,0.2-0.3,0.2-0.5c-0.1-0.2-0.3-0.1-0.4,0c-0.4,0.2-0.8,0.4-1.2,0.6c-2.1,1.1-4.1,2.3-6.2,3.4
			c-2.7,1.5-5.4,3-8.1,4.5c-1.7,0.9-3.3,1.8-5,2.7c-0.5,0.3-1.1,0.6-1.6,0.9c-0.2,0.1-0.4,0.2-0.6,0.3c-0.1-0.2-0.1-0.4-0.3-0.5
			c-0.1,0.1-0.3,0.1-0.4,0.2c-0.6-2.5-1.1-5-1.7-7.4c-0.6-2.8-1.3-5.5-1.9-8.3c0-0.1-0.1-0.2-0.1-0.3c-0.1,0.2-0.3,0.3-0.4,0.5
			c-1.7,2.3-3.4,4.6-5.1,6.9c-1.7,2.4-3.5,4.7-5.2,7.1c-1.6,2.1-3.1,4.3-4.7,6.4c-0.1,0.1-0.1,0.2-0.2,0.3c0.1,0.2,0.3,0.3,0.4,0.4
			c1.1,0.8,2.2,1.6,3.3,2.4c0.1,0.1,0.3,0.2,0.4,0.4c-0.1,0.1-0.2,0.2-0.3,0.3c0.3,0.3,0.4,0.4,0.6,0.3c0.1,0,0.2-0.1,0.3-0.2
			c0.4,0.3,0.9,0.6,1.3,1c2.2,1.6,4.4,3.2,6.7,4.9c2.3,1.7,4.6,3.3,6.9,5c1.5,1.1,3,2.2,4.6,3.3c0.1,0.1,0.2,0.1,0.4,0.2
			c0.2-0.2,0.1-0.4,0-0.6c-0.6-2.4-1.1-4.8-1.7-7.2c-0.5-2.1-1-4.1-1.4-6.2c-0.6-2.7-1.3-5.5-1.9-8.2c0-0.1-0.1-0.2-0.1-0.3
			c-0.2,0-0.4,0.1-0.5,0.2c-2.3,1.3-4.6,2.5-6.9,3.8c-2,1.1-4,2.2-6,3.3c-0.4,0.2-0.9,0.5-1.3,0.7c-0.2-0.1-0.3-0.2-0.5-0.3
			c0.3-0.2,0.5-0.3,0.8-0.5c1.3-0.7,2.6-1.4,3.9-2.1c2.5-1.4,4.9-2.7,7.4-4.1c1-0.5,2-1.1,2.9-1.6c0,0.2,0,0.4,0.2,0.5
			c0.1-0.1,0.3-0.1,0.4-0.2c0.4,1.7,0.8,3.5,1.2,5.2c0.8,3.5,1.7,7.1,2.5,10.6c0.4,1.8,0.8,3.5,1.2,5.3c0.1,0.2,0,0.5,0.3,0.7
			c-0.3,0.6-0.5,1.1-0.9,1.7c-0.1-0.1-0.3-0.3-0.4-0.4c-2.3-1.7-4.6-3.3-6.9-5c-2.5-1.8-4.9-3.6-7.4-5.4c-1.7-1.2-3.4-2.4-5-3.7
			c-0.3-0.2-0.6-0.2-0.9-0.1c-1,0.6-2.1,1.1-3.1,1.7c-1,0.5-2,1.1-3,1.6c-1.3,0.7-2.5,1.4-3.8,2.1c-0.5,0.3-0.9,0.5-1.4,0.7
			c0.1-0.3,0.4-0.5,0.5-0.9C51.1,81,50.8,81.1,50.5,81.2z"/>
		<path fill="#FFFFFF" d="M71.5,36.6c0.8,0.4,1.6,0.8,2.3,1.3c1.3,0.7,2.6,1.5,4,2.2c0.5,0.3,1.1,0.6,1.6,0.9c0.1,0,0.1,0.1,0.2,0.1
			c0.2,0.1,0.3,0.1,0.5-0.1c0.2-0.2,0.3-0.4,0.5-0.7c2-2.8,4.1-5.5,6.1-8.3c2.1-2.8,4.1-5.6,6.2-8.4c0.6-0.8,1.2-1.6,1.7-2.4
			c0.1-0.1,0.2-0.3,0.3-0.5c0.3-0.1,0.6-0.1,0.9-0.2c0,0,0.1,0.1,0.1,0.1c-0.2,0-0.3,0.2-0.4,0.3c-0.6,0.8-1.2,1.6-1.8,2.5
			c-2.8,3.8-5.6,7.6-8.4,11.3c-1.5,2-3,4.1-4.5,6.1c-0.1,0.2-0.2,0.3-0.3,0.5c0,0,0,0-0.1,0c-0.4-0.3-0.4-0.3-0.8,0
			c0,0-0.1,0-0.1,0.1c-0.1,0-0.2-0.1-0.4-0.1c-2.3-1.3-4.6-2.6-7-3.8c-0.1-0.1-0.3-0.1-0.5-0.2c0,0.2,0,0.3,0,0.4
			c0.1,0.5,0.2,0.9,0.3,1.4c0.6,2.4,1.1,4.8,1.7,7.1c0.1,0.6,0.3,1.1,0.4,1.7l0,0c-0.2-0.1-0.4-0.2-0.6-0.1c0,0,0,0,0,0
			c0-0.2,0-0.3-0.1-0.5c-0.6-2.5-1.2-5-1.7-7.5c-0.2-0.8-0.4-1.6-0.6-2.5c0-0.1,0-0.3,0-0.4c0.2,0,0.3,0.1,0.6,0.1
			C71.5,37,71.5,36.8,71.5,36.6z"/>
		<path fill="#FFFFFF" d="M43.7,21.2c-0.1,0.1,0,0.1,0.1,0.2c0.5,0.3,1,0.6,1.5,0.8c2,1.1,4.1,2.2,6.1,3.4c1.9,1,3.7,2.1,5.6,3.1
			c1.5,0.9,3.1,1.7,4.6,2.6c2.4,1.3,4.8,2.7,7.2,4c0.5,0.2,0.9,0.5,1.4,0.7c0.1,0.1,0.2,0.1,0.3,0.2c0.2-0.1,0.1-0.3,0.1-0.4
			c-0.3-1.2-0.6-2.5-0.9-3.7c-0.4-1.7-0.8-3.4-1.2-5.1c0-0.1,0-0.1-0.1-0.2c0-0.2-0.2-0.3-0.4-0.4c-0.1,0-0.2-0.1-0.3-0.1
			c0.4-0.1,0.8-0.1,1.1-0.2c0.3,1.2,0.5,2.3,0.8,3.5c0.5,2.2,1,4.4,1.6,6.7c0,0.1,0,0.2,0,0.3c-0.2,0-0.3-0.2-0.6-0.1
			c0.1,0.2,0.1,0.4,0.1,0.6c-1.5-0.8-3-1.7-4.6-2.5c-1.6-0.9-3.2-1.7-4.7-2.6c-2-1.1-4.1-2.3-6.1-3.4c-1.9-1.1-3.8-2.1-5.8-3.2
			c-2.3-1.3-4.7-2.6-7-3.9c-0.4-0.2-0.7-0.4-1.1-0.6c0.5,0.1,0.9,0.2,1.4,0.3C43.2,21.1,43.5,21.1,43.7,21.2z"/>
		<path fill="#FFFFFF" d="M37.5,40.9c0.1,0,0.1,0.1,0.2,0.1c1.3,0.2,2.5,0.5,3.8,0.7c2.7,0.5,5.5,1.1,8.2,1.6
			c2.2,0.4,4.4,0.9,6.6,1.3c3.3,0.6,6.6,1.3,10,1.9c2.4,0.5,4.8,0.9,7.2,1.4c0,0,0,0,0,0c0,0.2,0.1,0.4,0.1,0.5
			c-0.7-0.1-1.4-0.2-2.1-0.4c-2.9-0.6-5.9-1.1-8.8-1.7c-2-0.4-3.9-0.8-5.9-1.2c-2.6-0.5-5.2-1-7.8-1.5c-2.7-0.5-5.4-1.1-8.1-1.6
			c-1-0.2-1.9-0.4-2.9-0.6c-0.1,0-0.2,0-0.3,0c0,0.1-0.1,0.2-0.1,0.4c-0.5,2.5-1,4.9-1.6,7.4c-0.1,0.2-0.1,0.5-0.2,0.7
			c0-0.1,0-0.3,0-0.4c0.4-2.3,0.8-4.6,1.3-6.9c0.1-0.6,0.2-1.2,0.3-1.7C37.4,40.9,37.5,40.9,37.5,40.9z"/>
		<path fill="#FFFFFF" d="M101.8,54.2c-0.1-0.2-0.2-0.3-0.4-0.3c-0.2,0-0.5,0-0.7-0.1c0.1-0.1,0.1-0.1,0.2-0.2
			c0-0.1-0.1-0.1-0.1-0.2c0,0,0.1,0,0.1,0c0.3,0.1,0.5,0.1,0.8,0c0.3,0,0.3,0,0.3-0.2C102.1,53.5,102,53.9,101.8,54.2z"/>
		<path fill="#FFFFFF" d="M50.5,81.2c0.3-0.1,0.5-0.3,0.9-0.4c-0.1,0.4-0.4,0.6-0.5,0.9c-0.2,0.2-0.4,0.4-0.7,0.7
			c-0.1-0.2-0.2-0.4-0.4-0.6C50.1,81.5,50.3,81.4,50.5,81.2z"/>
		<path fill="#FFFFFF" d="M88.9,78.4c0-0.1,0-0.2,0.1-0.3c0.2-0.5,0.5-1,0.7-1.4c0-0.1,0.1-0.1,0.2-0.2c0,0.1,0,0.2-0.1,0.3
			c-0.2,0.5-0.5,1-0.7,1.4C89.1,78.2,89,78.3,88.9,78.4z"/>
		<path fill="#FFFFFF" d="M73.6,48.5c0-0.2-0.1-0.4-0.1-0.5c0.2-0.1,0.4,0,0.6,0.1c0.1,0.2,0.2,0.3,0.1,0.5c-0.2,0.1-0.3,0-0.5,0
			C73.6,48.6,73.6,48.5,73.6,48.5z"/>
		<path fill="#FFFFFF" d="M70.9,36.9c0-0.2-0.1-0.4-0.1-0.6c0.3,0,0.4,0.2,0.6,0.1c0,0.1,0.1,0.1,0.1,0.2c0,0.2,0.1,0.4,0.1,0.6
			c-0.2-0.1-0.4-0.1-0.6-0.1C71,37,70.9,37,70.9,36.9z"/>
		<path fill="#FFFFFF" d="M78.4,66.6c-0.1,0.1-0.3,0.1-0.4,0.2c-0.2-0.1-0.2-0.3-0.2-0.5l0,0c0.1-0.1,0.3-0.1,0.4-0.2
			C78.4,66.2,78.4,66.4,78.4,66.6C78.5,66.6,78.4,66.6,78.4,66.6z"/>
		<path fill="#FFFFFF" d="M57.5,71.5c0.1-0.1,0.2-0.2,0.4-0.3c0.1,0,0.2,0,0.2,0.1c0.2,0.1,0.2,0.2,0.1,0.4c0,0.1-0.1,0.2-0.1,0.3
			c0,0-0.1,0-0.1,0c-0.2-0.1-0.3-0.2-0.5-0.2C57.5,71.7,57.5,71.6,57.5,71.5z"/>
		<path fill="#FFFFFF" d="M74.5,49.6C74.5,49.7,74.5,49.7,74.5,49.6c-0.1,0.2-0.3,0.3-0.4,0.5c-0.3-0.4-0.3-0.7,0.2-1.1
			C74.5,49.2,74.4,49.4,74.5,49.6z"/>
		<path fill="#FFFFFF" d="M63.2,74.9c0,0,0,0.1,0,0.1c-0.1,0.1-0.2,0.1-0.3,0.2c-0.3,0.1-0.4,0.1-0.6-0.3c0.1-0.1,0.2-0.2,0.3-0.3
			c0.1,0,0.1,0,0.2,0C62.9,74.7,63,74.8,63.2,74.9z"/>
		<path fill="#FFFFFF" d="M74.8,48.2C74.8,48.2,74.8,48.2,74.8,48.2c0.3,0,0.5,0.1,0.7,0.1l0,0c-0.1,0.2-0.2,0.4-0.3,0.5
			c0,0-0.1,0-0.1,0c-0.2,0-0.4,0-0.5-0.2C74.6,48.5,74.7,48.3,74.8,48.2z"/>
		<path fill="#FFFFFF" d="M79.6,41.7c0,0,0-0.1,0-0.1c0,0,0.1,0,0.1-0.1c0.4-0.3,0.4-0.3,0.8,0C80.1,42.1,80,42,79.6,41.7z"/>
	</g>
</g>
</svg>
